<svg xmlns="http://www.w3.org/2000/svg" width="112" height="342" viewBox="0 0 112 342">
  <g id="Group_5" data-name="Group 5" transform="translate(121.467 -1178)">
    <rect id="Rectangle_12" data-name="Rectangle 12" width="112" height="342" transform="translate(-121.467 1178)" fill="#ff10c6"/>
    <g id="Group_4" data-name="Group 4" transform="translate(-86.467 1243)">
      <ellipse id="Ellipse_17" data-name="Ellipse 17" cx="6.5" cy="6" rx="6.5" ry="6" transform="translate(0 164)" fill="#fff"/>
      <ellipse id="Ellipse_18" data-name="Ellipse 18" cx="6.5" cy="6" rx="6.5" ry="6" transform="translate(44 164)" fill="#fff"/>
      <ellipse id="Ellipse_13" data-name="Ellipse 13" cx="6.5" cy="6" rx="6.5" ry="6" transform="translate(0 125)" fill="#fff"/>
      <ellipse id="Ellipse_14" data-name="Ellipse 14" cx="6.5" cy="6" rx="6.5" ry="6" transform="translate(40 125)" fill="#fff"/>
      <ellipse id="Ellipse_7" data-name="Ellipse 7" cx="6.5" cy="6" rx="6.5" ry="6" transform="translate(0 39)" fill="#fff"/>
      <ellipse id="Ellipse_10" data-name="Ellipse 10" cx="6.5" cy="6" rx="6.5" ry="6" transform="translate(0 82)" fill="#fff"/>
      <ellipse id="Ellipse_8" data-name="Ellipse 8" cx="6.5" cy="6" rx="6.5" ry="6" transform="translate(40 39)" fill="#fff"/>
      <ellipse id="Ellipse_11" data-name="Ellipse 11" cx="6.5" cy="6" rx="6.5" ry="6" transform="translate(40 82)" fill="#fff"/>
      <ellipse id="Ellipse_4" data-name="Ellipse 4" cx="6.5" cy="6" rx="6.5" ry="6" fill="#fff"/>
      <ellipse id="Ellipse_5" data-name="Ellipse 5" cx="6.5" cy="6" rx="6.5" ry="6" transform="translate(40)" fill="#fff"/>
    </g>
  </g>
</svg>
